<svg width="257.74498291015624px" height="68.0249755859375px" xmlns="http://www.w3.org/2000/svg" viewBox="121.12750854492188 40.98751220703125 257.74498291015624 68.0249755859375" style="background: rgba(0, 0, 0, 0);" preserveAspectRatio="xMidYMid"><defs><linearGradient id="editing-shiny-gradient" x1="0.04322727117869957" x2="0.9567727288213004" y1="0.2966316784620999" y2="0.7033683215379001" gradientUnits="objectBoundingBox"><stop offset="0.0" stop-color="#ffb200"></stop><stop offset="0.5" stop-color="#de9b00"></stop><stop offset="1.0" stop-color="#ffb200"></stop></linearGradient><linearGradient id="editing-shiny-gradient2" x1="0" x2="0" y1="0" y2="1"><stop offset="0.2" stop-color="#fff" stop-opacity="0.8"></stop><stop offset="0.8" stop-color="#fff" stop-opacity="0"></stop></linearGradient><filter id="editing-shiny2" x="-100%" y="-100%" width="300%" height="300%"><feMorphology operator="erode" radius="2"></feMorphology></filter><filter id="editing-shiny" x="-100%" y="-100%" width="300%" height="300%"><feFlood flood-color="#fff" result="flood"></feFlood><feConvolveMatrix in="SourceGraphic" result="conv" order="8,8" divisor="1" kernelMatrix="0 0 0 0 0 0 0 0 0 0 0 1 1 0 0 0 0 0 0 1 1 0 0 0 0 0 1 0 0 1 0 0 0 0 1 0 0 1 0 0 0 1 0 0 0 0 1 0 0 1 1 0 0 1 1 0 0 0 0 1 1 0 0 0 "></feConvolveMatrix><feOffset dx="0" dy="4" in="conv" result="offset"></feOffset><feComposite operator="in" in="flood" in2="offset" result="comp"></feComposite><feGaussianBlur in="offset" stdDeviation="3" result="shadow"></feGaussianBlur><feColorMatrix in="shadow" type="matrix" values="0.7 0 0 0 0  0 0.7 0 0 0  0 0 0.7 0 0  0 0 0 0.3 0" result="dark-shadow"></feColorMatrix><feOffset dx="0" dy="4" in="dark-shadow" result="offset-shadow"></feOffset><feOffset dx="0" dy="2" in="conv" result="offset-2"></feOffset><feComposite operator="out" in="offset" in2="offset-2" result="edge-diff"></feComposite><feGaussianBlur in="edge-diff" stdDeviation="1" result="edge-blur"></feGaussianBlur><feColorMatrix in="edge-blur" result="edge-shadow" type="matrix" values="0 0 0 0 0  0 0 0 0 0  0 0 0 0 0  0 0 0 0.5 0"></feColorMatrix><feComposite operator="in" in="edge-shadow" in2="offset" result="edge-shadow-in"></feComposite><feOffset dx="0" dy="1" in="edge-shadow-in" result="edge-shadow-final"></feOffset><feMerge result="out"><feMergeNode in="offset-shadow"></feMergeNode><feMergeNode in="comp"></feMergeNode><feMergeNode in="edge-shadow-final"></feMergeNode><feMergeNode in="SourceGraphic"></feMergeNode></feMerge></filter></defs><g filter="url(#editing-shiny)"><g transform="translate(163.4325033724308, 88.63500022888184)"><path d="M3.06 0L-0.39 0L5.04-19.80L11.31-19.80L12.69-8.49L18.27-19.80L23.52-19.80L24.06-4.98L24.06-4.98Q24.18-2.04 25.62-1.14L25.62-1.14L25.62-1.14Q25.29-0.54 24.33 0.03L24.33 0.03L24.33 0.03Q23.37 0.60 22.09 0.60L22.09 0.60L22.09 0.60Q20.82 0.60 20.07 0.24L20.07 0.24L20.07 0.24Q19.32-0.12 18.90-0.72L18.90-0.72L18.90-0.72Q18.15-1.80 18.15-3.87L18.15-3.87L18.15-13.14L12.24 0L8.52 0L6.42-13.47L3.06 0ZM34.11-1.65L34.11-1.65L34.11-1.65Q33.18 0.60 30.21 0.60L30.21 0.60L30.21 0.60Q28.68 0.60 27.72-0.45L27.72-0.45L27.72-0.45Q26.91-1.38 26.91-2.31L26.91-2.31L26.91-2.31Q26.91-4.74 28.02-9.48L28.02-9.48L29.13-15.30L35.22-15.90L33.39-6.42L33.39-6.42Q32.88-4.20 32.88-3.42L32.88-3.42L32.88-3.42Q32.88-1.71 34.11-1.65ZM29.67-19.47L29.67-19.47L29.67-19.47Q29.67-20.64 30.64-21.27L30.64-21.27L30.64-21.27Q31.62-21.90 33.03-21.90L33.03-21.90L33.03-21.90Q34.44-21.90 35.30-21.27L35.30-21.27L35.30-21.27Q36.15-20.64 36.15-19.47L36.15-19.47L36.15-19.47Q36.15-18.30 35.20-17.70L35.20-17.70L35.20-17.70Q34.26-17.10 32.85-17.10L32.85-17.10L32.85-17.10Q31.44-17.10 30.55-17.70L30.55-17.70L30.55-17.70Q29.67-18.30 29.67-19.47ZM49.35 0.60L49.35 0.60L49.35 0.60Q45.72 0.60 45.72-2.22L45.72-2.22L45.72-2.22Q45.75-3 45.99-4.32L45.99-4.32L46.53-7.08L46.53-7.08Q47.34-10.98 47.34-11.85L47.34-11.85L47.34-11.85Q47.34-13.59 46.32-13.59L46.32-13.59L46.32-13.59Q44.61-13.59 43.71-9.12L43.71-9.12L41.94 0L35.91 0.60L39.03-15.33L43.95-15.90L43.47-12.96L43.47-12.96Q44.88-15.90 49.20-15.90L49.20-15.90L49.20-15.90Q51.30-15.90 52.19-15.01L52.19-15.01L52.19-15.01Q53.07-14.13 53.07-12.15L53.07-12.15L53.07-12.15Q53.07-10.29 52.11-5.94L52.11-5.94L52.11-5.94Q51.66-3.99 51.66-3.25L51.66-3.25L51.66-3.25Q51.66-2.52 52.06-2.10L52.06-2.10L52.06-2.10Q52.47-1.68 53.07-1.62L53.07-1.62L53.07-1.62Q52.77-0.60 51.73 0L51.73 0L51.73 0Q50.70 0.60 49.35 0.60ZM64.92-15.90L64.92-15.90L64.92-15.90Q66-15.90 66.84-15.66L66.84-15.66L66.84-15.66Q66.87-15.78 66.93-16.11L66.93-16.11L67.08-17.04L67.08-17.04Q67.20-17.64 67.38-18.63L67.38-18.63L67.86-21L73.83-21.60L70.50-4.20L70.50-4.20Q70.47-4.02 70.47-3.72L70.47-3.72L70.47-3.24L70.47-3.24Q70.47-2.58 70.80-2.08L70.80-2.08L70.80-2.08Q71.13-1.59 71.67-1.59L71.67-1.59L71.67-1.59Q71.07-0.18 69.24 0.42L69.24 0.42L69.24 0.42Q68.61 0.60 67.72 0.60L67.72 0.60L67.72 0.60Q66.84 0.60 66.03 0.14L66.03 0.14L66.03 0.14Q65.22-0.33 64.98-1.11L64.98-1.11L64.98-1.11Q64.50-0.33 63.54 0.14L63.54 0.14L63.54 0.14Q62.58 0.60 61.18 0.60L61.18 0.60L61.18 0.60Q59.79 0.60 58.63 0.24L58.63 0.24L58.63 0.24Q57.48-0.12 56.76-0.90L56.76-0.90L56.76-0.90Q55.44-2.43 55.44-5.91L55.44-5.91L55.44-5.91Q55.44-10.41 58.08-13.14L58.08-13.14L58.08-13.14Q60.72-15.90 64.92-15.90ZM64.71-14.10L64.71-14.10L64.71-14.10Q63.60-14.10 63.00-12.90L63.00-12.90L63.00-12.90Q62.40-11.70 61.78-8.73L61.78-8.73L61.78-8.73Q61.17-5.76 61.17-3.09L61.17-3.09L61.17-3.09Q61.17-1.26 62.25-1.26L62.25-1.26L62.25-1.26Q63.21-1.26 63.88-2.22L63.88-2.22L63.88-2.22Q64.56-3.18 64.83-4.77L64.83-4.77L66.45-13.56L66.45-13.56Q65.82-14.10 64.71-14.10ZM77.10 0.39L77.76-1.80L77.76-1.80Q78.81-1.23 80.37-1.23L80.37-1.23L80.37-1.23Q81.93-1.23 83.23-2.17L83.23-2.17L83.23-2.17Q84.54-3.12 85.47-4.86L85.47-4.86L85.47-4.86Q87.39-8.55 87.39-14.49L87.39-14.49L87.39-14.49Q87.39-18.27 85.68-18.27L85.68-18.27L85.68-18.27Q84.78-18.27 83.91-17.28L83.91-17.28L83.91-17.28Q83.04-16.29 82.35-14.70L82.35-14.70L82.35-14.70Q80.85-11.07 80.85-6.81L80.85-6.81L80.85-6.81Q80.85-5.94 81.27-5.42L81.27-5.42L81.27-5.42Q81.69-4.89 82.44-4.89L82.44-4.89L82.44-4.89Q82.32-3.96 81.51-3.30L81.51-3.30L81.51-3.30Q80.70-2.64 79.68-2.64L79.68-2.64L79.68-2.64Q77.25-2.64 76.00-4.16L76.00-4.16L76.00-4.16Q74.76-5.67 74.76-8.41L74.76-8.41L74.76-8.41Q74.76-11.16 75.60-13.32L75.60-13.32L75.60-13.32Q76.44-15.48 77.91-17.05L77.91-17.05L77.91-17.05Q79.38-18.63 81.40-19.53L81.40-19.53L81.40-19.53Q83.43-20.43 85.83-20.43L85.83-20.43L85.83-20.43Q93.87-20.43 93.87-12.60L93.87-12.60L93.87-12.60Q93.87-6.96 91.17-3.51L91.17-3.51L91.17-3.51Q88.47-0.03 83.79 0.39L83.79 0.39L83.79 0.39Q86.55 0.99 89.34 0.99L89.34 0.99L89.34 0.99Q91.53 0.99 93.15 0.06L93.15 0.06L93.15 0.06Q93.60-0.21 93.78-0.51L93.78-0.51L93.78-0.51Q94.68 0.30 94.68 1.91L94.68 1.91L94.68 1.91Q94.68 3.51 93.25 4.44L93.25 4.44L93.25 4.44Q91.83 5.37 89.05 5.37L89.05 5.37L89.05 5.37Q86.28 5.37 83.07 4.08L83.07 4.08L83.07 4.08Q79.86 2.79 77.10 0.39L77.10 0.39ZM104.94-1.26L104.94-1.26L104.94-1.26Q103.50 0.60 99.93 0.60L99.93 0.60L99.93 0.60Q98.07 0.60 96.72-0.53L96.72-0.53L96.72-0.53Q95.37-1.65 95.37-3.27L95.37-3.27L95.37-3.27Q95.37-4.17 95.46-4.62L95.46-4.62L97.47-15.30L103.56-15.90L101.37-4.32L101.37-4.32Q101.25-3.66 101.25-3.27L101.25-3.27L101.25-3.27Q101.25-1.53 102.30-1.53L102.30-1.53L102.30-1.53Q103.47-1.53 104.31-3.12L104.31-3.12L104.31-3.12Q104.58-3.63 104.70-4.29L104.70-4.29L106.83-15.30L112.74-15.90L110.52-4.20L110.52-4.20Q110.43-3.75 110.43-3.27L110.43-3.27L110.43-3.27Q110.43-2.79 110.70-2.27L110.70-2.27L110.70-2.27Q110.97-1.74 111.84-1.62L111.84-1.62L111.84-1.62Q111.66-0.90 111.03-0.42L111.03-0.42L111.03-0.42Q109.71 0.60 108.28 0.60L108.28 0.60L108.28 0.60Q106.86 0.60 106.02 0.09L106.02 0.09L106.02 0.09Q105.18-0.42 104.94-1.26ZM121.56-1.65L121.56-1.65L121.56-1.65Q120.63 0.60 117.66 0.60L117.66 0.60L117.66 0.60Q116.13 0.60 115.17-0.45L115.17-0.45L115.17-0.45Q114.36-1.38 114.36-2.31L114.36-2.31L114.36-2.31Q114.36-4.74 115.47-9.48L115.47-9.48L116.58-15.30L122.67-15.90L120.84-6.42L120.84-6.42Q120.33-4.20 120.33-3.42L120.33-3.42L120.33-3.42Q120.33-1.71 121.56-1.65ZM117.12-19.47L117.12-19.47L117.12-19.47Q117.12-20.64 118.09-21.27L118.09-21.27L118.09-21.27Q119.07-21.90 120.48-21.90L120.48-21.90L120.48-21.90Q121.89-21.90 122.74-21.27L122.74-21.27L122.74-21.27Q123.60-20.64 123.60-19.47L123.60-19.47L123.60-19.47Q123.60-18.30 122.66-17.70L122.66-17.70L122.66-17.70Q121.71-17.10 120.30-17.10L120.30-17.10L120.30-17.10Q118.89-17.10 118.00-17.70L118.00-17.70L118.00-17.70Q117.12-18.30 117.12-19.47ZM129.88 0.30L129.88 0.30L129.88 0.30Q128.46 0 127.72-0.14L127.72-0.14L127.72-0.14Q126.99-0.27 126.13-0.27L126.13-0.27L126.13-0.27Q125.28-0.27 124.44 0.03L124.44 0.03L124.44 0.03Q123.99-0.24 123.70-0.78L123.70-0.78L123.70-0.78Q123.42-1.32 123.42-2.16L123.42-2.16L123.42-2.16Q123.42-3.93 125.22-5.28L125.22-5.28L132.84-10.77L132.84-10.77Q130.71-11.37 128.78-11.37L128.78-11.37L128.78-11.37Q126.84-11.37 126.15-10.05L126.15-10.05L126.15-10.05Q125.13-11.25 125.13-13.14L125.13-13.14L125.13-13.14Q125.13-14.40 126.04-15.22L126.04-15.22L126.04-15.22Q126.96-16.05 128.88-16.05L128.88-16.05L128.88-16.05Q129.96-16.05 130.94-15.91L130.94-15.91L130.94-15.91Q131.91-15.78 132.78-15.66L132.78-15.66L134.40-15.42L134.40-15.42Q135.18-15.30 135.97-15.30L135.97-15.30L135.97-15.30Q136.77-15.30 137.37-15.63L137.37-15.63L137.37-15.63Q138.15-14.91 138.15-13.92L138.15-13.92L138.15-13.92Q138.15-12.36 136.23-10.74L136.23-10.74L128.64-5.07L128.64-5.07Q130.98-4.38 132.18-4.38L132.18-4.38L132.18-4.38Q134.70-4.38 135.78-5.58L135.78-5.58L135.78-5.58Q136.62-4.62 136.62-2.96L136.62-2.96L136.62-2.96Q136.62-1.29 135.54-0.34L135.54-0.34L135.54-0.34Q134.46 0.60 132.51 0.60L132.51 0.60L132.51 0.60Q131.31 0.60 129.88 0.30ZM138.33-1.77L138.33-1.77L138.33-1.77Q138.33-2.91 139.22-3.54L139.22-3.54L139.22-3.54Q140.10-4.17 141.36-4.17L141.36-4.17L141.36-4.17Q142.62-4.17 143.38-3.54L143.38-3.54L143.38-3.54Q144.15-2.91 144.15-1.77L144.15-1.77L144.15-1.77Q144.15-0.63 143.29-0.01L143.29-0.01L143.29-0.01Q142.44 0.60 141.18 0.60L141.18 0.60L141.18 0.60Q139.92 0.60 139.13-0.01L139.13-0.01L139.13-0.01Q138.33-0.63 138.33-1.77ZM154.14-1.65L154.14-1.65L154.14-1.65Q153.21 0.60 150.24 0.60L150.24 0.60L150.24 0.60Q148.71 0.60 147.75-0.45L147.75-0.45L147.75-0.45Q146.94-1.38 146.94-2.31L146.94-2.31L146.94-2.31Q146.94-4.74 148.05-9.48L148.05-9.48L149.16-15.30L155.25-15.90L153.42-6.42L153.42-6.42Q152.91-4.20 152.91-3.42L152.91-3.42L152.91-3.42Q152.91-1.71 154.14-1.65ZM149.70-19.47L149.70-19.47L149.70-19.47Q149.70-20.64 150.68-21.27L150.68-21.27L150.68-21.27Q151.65-21.90 153.06-21.90L153.06-21.90L153.06-21.90Q154.47-21.90 155.33-21.27L155.33-21.27L155.33-21.27Q156.18-20.64 156.18-19.47L156.18-19.47L156.18-19.47Q156.18-18.30 155.24-17.70L155.24-17.70L155.24-17.70Q154.29-17.10 152.88-17.10L152.88-17.10L152.88-17.10Q151.47-17.10 150.59-17.70L150.59-17.70L150.59-17.70Q149.70-18.30 149.70-19.47ZM163.23 0.60L163.23 0.60L163.23 0.60Q156.63 0.60 156.63-5.61L156.63-5.61L156.63-5.61Q156.63-10.02 159.06-12.87L159.06-12.87L159.06-12.87Q161.64-15.90 166.11-15.90L166.11-15.90L166.11-15.90Q169.35-15.90 171-14.40L171-14.40L171-14.40Q172.65-12.90 172.65-9.75L172.65-9.75L172.65-9.75Q172.65-4.95 170.07-2.16L170.07-2.16L170.07-2.16Q167.55 0.60 163.23 0.60ZM164.01-12.45L164.01-12.45L164.01-12.45Q163.65-11.64 163.37-10.42L163.37-10.42L163.37-10.42Q163.08-9.21 162.72-7.29L162.72-7.29L162.72-7.29Q162.36-5.37 162.36-3L162.36-3L162.36-3Q162.36-2.22 162.62-1.71L162.62-1.71L162.62-1.71Q162.87-1.20 163.56-1.20L163.56-1.20L163.56-1.20Q164.25-1.20 164.69-1.53L164.69-1.53L164.69-1.53Q165.12-1.86 165.45-2.64L165.45-2.64L165.45-2.64Q166.05-4.02 166.53-6.58L166.53-6.58L166.53-6.58Q167.01-9.15 167.06-10.26L167.06-10.26L167.06-10.26Q167.10-11.37 167.10-12.20L167.10-12.20L167.10-12.20Q167.10-13.02 166.86-13.56L166.86-13.56L166.86-13.56Q166.62-14.10 165.94-14.10L165.94-14.10L165.94-14.10Q165.27-14.10 164.82-13.68L164.82-13.68L164.82-13.68Q164.37-13.26 164.01-12.45Z" fill="url(#editing-shiny-gradient)"></path></g></g><g filter="url(#editing-shiny2)"><g transform="translate(163.3700033724308, 88.63500022888184)"><path d="M3.06 0L-0.39 0L5.04-19.80L11.31-19.80L12.69-8.49L18.27-19.80L23.52-19.80L24.06-4.98L24.06-4.98Q24.18-2.04 25.62-1.14L25.62-1.14L25.62-1.14Q25.29-0.54 24.33 0.03L24.33 0.03L24.33 0.03Q23.37 0.60 22.09 0.60L22.09 0.60L22.09 0.60Q20.82 0.60 20.07 0.24L20.07 0.24L20.07 0.24Q19.32-0.12 18.90-0.72L18.90-0.72L18.90-0.72Q18.15-1.80 18.15-3.87L18.15-3.87L18.15-13.14L12.24 0L8.52 0L6.42-13.47L3.06 0ZM34.11-1.65L34.11-1.65L34.11-1.65Q33.18 0.60 30.21 0.60L30.21 0.60L30.21 0.60Q28.68 0.60 27.72-0.45L27.72-0.45L27.72-0.45Q26.91-1.38 26.91-2.31L26.91-2.31L26.91-2.31Q26.91-4.74 28.02-9.48L28.02-9.48L29.13-15.30L35.22-15.90L33.39-6.42L33.39-6.42Q32.88-4.20 32.88-3.42L32.88-3.42L32.88-3.42Q32.88-1.71 34.11-1.65ZM29.67-19.47L29.67-19.47L29.67-19.47Q29.67-20.64 30.64-21.27L30.64-21.27L30.64-21.27Q31.62-21.90 33.03-21.90L33.03-21.90L33.03-21.90Q34.44-21.90 35.30-21.27L35.30-21.27L35.30-21.27Q36.15-20.64 36.15-19.47L36.15-19.47L36.15-19.47Q36.15-18.30 35.20-17.70L35.20-17.70L35.20-17.70Q34.26-17.10 32.85-17.10L32.85-17.10L32.85-17.10Q31.44-17.10 30.55-17.70L30.55-17.70L30.55-17.70Q29.67-18.30 29.67-19.47ZM49.35 0.60L49.35 0.60L49.35 0.60Q45.72 0.60 45.72-2.22L45.72-2.22L45.72-2.22Q45.75-3 45.99-4.32L45.99-4.32L46.53-7.08L46.53-7.08Q47.34-10.98 47.34-11.85L47.34-11.85L47.34-11.85Q47.34-13.59 46.32-13.59L46.32-13.59L46.32-13.59Q44.61-13.59 43.71-9.12L43.71-9.12L41.94 0L35.91 0.60L39.03-15.33L43.95-15.90L43.47-12.96L43.47-12.96Q44.88-15.90 49.20-15.90L49.20-15.90L49.20-15.90Q51.30-15.90 52.19-15.01L52.19-15.01L52.19-15.01Q53.07-14.13 53.07-12.15L53.07-12.15L53.07-12.15Q53.07-10.29 52.11-5.94L52.11-5.94L52.11-5.94Q51.66-3.99 51.66-3.25L51.66-3.25L51.66-3.25Q51.66-2.52 52.06-2.10L52.06-2.10L52.06-2.10Q52.47-1.68 53.07-1.62L53.07-1.62L53.07-1.62Q52.77-0.60 51.73 0L51.73 0L51.73 0Q50.70 0.60 49.35 0.60ZM64.92-15.90L64.92-15.90L64.92-15.90Q66-15.90 66.84-15.66L66.84-15.66L66.84-15.66Q66.87-15.78 66.93-16.11L66.93-16.11L67.08-17.04L67.08-17.04Q67.20-17.64 67.38-18.63L67.38-18.63L67.86-21L73.83-21.60L70.50-4.20L70.50-4.20Q70.47-4.02 70.47-3.72L70.47-3.72L70.47-3.24L70.47-3.24Q70.47-2.58 70.80-2.08L70.80-2.08L70.80-2.08Q71.13-1.59 71.67-1.59L71.67-1.59L71.67-1.59Q71.07-0.18 69.24 0.42L69.24 0.42L69.24 0.42Q68.61 0.60 67.72 0.60L67.72 0.60L67.72 0.60Q66.84 0.60 66.03 0.14L66.03 0.14L66.03 0.14Q65.22-0.33 64.98-1.11L64.98-1.11L64.98-1.11Q64.50-0.33 63.54 0.14L63.54 0.14L63.54 0.14Q62.58 0.60 61.18 0.60L61.18 0.60L61.18 0.60Q59.79 0.60 58.63 0.24L58.63 0.24L58.63 0.24Q57.48-0.12 56.76-0.90L56.76-0.90L56.76-0.90Q55.44-2.43 55.44-5.91L55.44-5.91L55.44-5.91Q55.44-10.41 58.08-13.14L58.08-13.14L58.08-13.14Q60.72-15.90 64.92-15.90ZM64.71-14.10L64.71-14.10L64.71-14.10Q63.60-14.10 63.00-12.90L63.00-12.90L63.00-12.90Q62.40-11.70 61.78-8.73L61.78-8.73L61.78-8.73Q61.17-5.76 61.17-3.09L61.17-3.09L61.17-3.09Q61.17-1.26 62.25-1.26L62.25-1.26L62.25-1.26Q63.21-1.26 63.88-2.22L63.88-2.22L63.88-2.22Q64.56-3.18 64.83-4.77L64.83-4.77L66.45-13.56L66.45-13.56Q65.82-14.10 64.71-14.10ZM77.10 0.39L77.76-1.80L77.76-1.80Q78.81-1.23 80.37-1.23L80.37-1.23L80.37-1.23Q81.93-1.23 83.23-2.17L83.23-2.17L83.23-2.17Q84.54-3.12 85.47-4.86L85.47-4.86L85.47-4.86Q87.39-8.55 87.39-14.49L87.39-14.49L87.39-14.49Q87.39-18.27 85.68-18.27L85.68-18.27L85.68-18.27Q84.78-18.27 83.91-17.28L83.91-17.28L83.91-17.28Q83.04-16.29 82.35-14.70L82.35-14.70L82.35-14.70Q80.85-11.07 80.85-6.81L80.85-6.81L80.85-6.81Q80.85-5.94 81.27-5.42L81.27-5.42L81.27-5.42Q81.69-4.89 82.44-4.89L82.44-4.89L82.44-4.89Q82.32-3.96 81.51-3.30L81.51-3.30L81.51-3.30Q80.70-2.64 79.68-2.64L79.68-2.64L79.68-2.64Q77.25-2.64 76.00-4.16L76.00-4.16L76.00-4.16Q74.76-5.67 74.76-8.41L74.76-8.41L74.76-8.41Q74.76-11.16 75.60-13.32L75.60-13.32L75.60-13.32Q76.44-15.48 77.91-17.05L77.91-17.05L77.91-17.05Q79.38-18.63 81.40-19.53L81.40-19.53L81.40-19.53Q83.43-20.43 85.83-20.43L85.83-20.43L85.83-20.43Q93.87-20.43 93.87-12.60L93.87-12.60L93.87-12.60Q93.87-6.96 91.17-3.51L91.17-3.51L91.17-3.51Q88.47-0.03 83.79 0.39L83.79 0.39L83.79 0.39Q86.55 0.99 89.34 0.99L89.34 0.99L89.34 0.99Q91.53 0.99 93.15 0.06L93.15 0.06L93.15 0.06Q93.60-0.21 93.78-0.51L93.78-0.51L93.78-0.51Q94.68 0.30 94.68 1.91L94.68 1.91L94.68 1.91Q94.68 3.51 93.25 4.44L93.25 4.44L93.25 4.44Q91.83 5.37 89.05 5.37L89.05 5.37L89.05 5.37Q86.28 5.37 83.07 4.08L83.07 4.08L83.07 4.08Q79.86 2.79 77.10 0.39L77.10 0.39ZM104.94-1.26L104.94-1.26L104.94-1.26Q103.50 0.60 99.93 0.60L99.93 0.60L99.93 0.60Q98.07 0.60 96.72-0.53L96.72-0.53L96.72-0.53Q95.37-1.65 95.37-3.27L95.37-3.27L95.37-3.27Q95.37-4.17 95.46-4.62L95.46-4.62L97.47-15.30L103.56-15.90L101.37-4.32L101.37-4.32Q101.25-3.66 101.25-3.27L101.25-3.27L101.25-3.27Q101.25-1.53 102.30-1.53L102.30-1.53L102.30-1.53Q103.47-1.53 104.31-3.12L104.31-3.12L104.31-3.12Q104.58-3.63 104.70-4.29L104.70-4.29L106.83-15.30L112.74-15.90L110.52-4.20L110.52-4.20Q110.43-3.75 110.43-3.27L110.43-3.27L110.43-3.27Q110.43-2.79 110.70-2.27L110.70-2.27L110.70-2.27Q110.97-1.74 111.84-1.62L111.84-1.62L111.84-1.62Q111.66-0.90 111.03-0.42L111.03-0.42L111.03-0.42Q109.71 0.60 108.28 0.60L108.28 0.60L108.28 0.60Q106.86 0.60 106.02 0.09L106.02 0.09L106.02 0.09Q105.18-0.42 104.94-1.26ZM121.56-1.65L121.56-1.65L121.56-1.65Q120.63 0.60 117.66 0.60L117.66 0.60L117.66 0.60Q116.13 0.60 115.17-0.45L115.17-0.45L115.17-0.45Q114.36-1.38 114.36-2.31L114.36-2.31L114.36-2.31Q114.36-4.74 115.47-9.48L115.47-9.48L116.58-15.30L122.67-15.90L120.84-6.42L120.84-6.42Q120.33-4.20 120.33-3.42L120.33-3.42L120.33-3.42Q120.33-1.71 121.56-1.65ZM117.12-19.47L117.12-19.47L117.12-19.47Q117.12-20.64 118.09-21.27L118.09-21.27L118.09-21.27Q119.07-21.90 120.48-21.90L120.48-21.90L120.48-21.90Q121.89-21.90 122.74-21.27L122.74-21.27L122.74-21.27Q123.60-20.64 123.60-19.47L123.60-19.47L123.60-19.47Q123.60-18.30 122.66-17.70L122.66-17.70L122.66-17.70Q121.71-17.10 120.30-17.10L120.30-17.10L120.30-17.10Q118.89-17.10 118.00-17.70L118.00-17.70L118.00-17.70Q117.12-18.30 117.12-19.47ZM129.88 0.30L129.88 0.30L129.88 0.30Q128.46 0 127.72-0.14L127.72-0.14L127.72-0.14Q126.99-0.27 126.13-0.27L126.13-0.27L126.13-0.27Q125.28-0.27 124.44 0.03L124.44 0.03L124.44 0.03Q123.99-0.24 123.70-0.78L123.70-0.78L123.70-0.78Q123.42-1.32 123.42-2.16L123.42-2.16L123.42-2.16Q123.42-3.93 125.22-5.28L125.22-5.28L132.84-10.77L132.84-10.77Q130.71-11.37 128.78-11.37L128.78-11.37L128.78-11.37Q126.84-11.37 126.15-10.05L126.15-10.05L126.15-10.05Q125.13-11.25 125.13-13.14L125.13-13.14L125.13-13.14Q125.13-14.40 126.04-15.22L126.04-15.22L126.04-15.22Q126.96-16.05 128.88-16.05L128.88-16.05L128.88-16.05Q129.96-16.05 130.94-15.91L130.94-15.91L130.94-15.91Q131.91-15.78 132.78-15.66L132.78-15.66L134.40-15.42L134.40-15.42Q135.18-15.30 135.97-15.30L135.97-15.30L135.97-15.30Q136.77-15.30 137.37-15.63L137.37-15.63L137.37-15.63Q138.15-14.91 138.15-13.92L138.15-13.92L138.15-13.92Q138.15-12.36 136.23-10.74L136.23-10.74L128.64-5.07L128.64-5.07Q130.98-4.38 132.18-4.38L132.18-4.38L132.18-4.38Q134.70-4.38 135.78-5.58L135.78-5.58L135.78-5.58Q136.62-4.62 136.62-2.96L136.62-2.96L136.62-2.96Q136.62-1.29 135.54-0.34L135.54-0.34L135.54-0.34Q134.46 0.60 132.51 0.60L132.51 0.60L132.51 0.60Q131.31 0.60 129.88 0.30ZM138.33-1.77L138.33-1.77L138.33-1.77Q138.33-2.91 139.22-3.54L139.22-3.54L139.22-3.54Q140.10-4.17 141.36-4.17L141.36-4.17L141.36-4.17Q142.62-4.17 143.38-3.54L143.38-3.54L143.38-3.54Q144.15-2.91 144.15-1.77L144.15-1.77L144.15-1.77Q144.15-0.63 143.29-0.01L143.29-0.01L143.29-0.01Q142.44 0.60 141.18 0.60L141.18 0.60L141.18 0.60Q139.92 0.60 139.13-0.01L139.13-0.01L139.13-0.01Q138.33-0.63 138.33-1.77ZM154.14-1.65L154.14-1.65L154.14-1.65Q153.21 0.60 150.24 0.60L150.24 0.60L150.24 0.60Q148.71 0.60 147.75-0.45L147.75-0.45L147.75-0.45Q146.94-1.38 146.94-2.31L146.94-2.31L146.94-2.31Q146.94-4.74 148.05-9.48L148.05-9.48L149.16-15.30L155.25-15.90L153.42-6.42L153.42-6.42Q152.91-4.20 152.91-3.42L152.91-3.42L152.91-3.42Q152.91-1.71 154.14-1.65ZM149.70-19.47L149.70-19.47L149.70-19.47Q149.70-20.64 150.68-21.27L150.68-21.27L150.68-21.27Q151.65-21.90 153.06-21.90L153.06-21.90L153.06-21.90Q154.47-21.90 155.33-21.27L155.33-21.27L155.33-21.27Q156.18-20.64 156.18-19.47L156.18-19.47L156.18-19.47Q156.18-18.30 155.24-17.70L155.24-17.70L155.24-17.70Q154.29-17.10 152.88-17.10L152.88-17.10L152.88-17.10Q151.47-17.10 150.59-17.70L150.59-17.70L150.59-17.70Q149.70-18.30 149.70-19.47ZM163.23 0.60L163.23 0.60L163.23 0.60Q156.63 0.60 156.63-5.61L156.63-5.61L156.63-5.61Q156.63-10.02 159.06-12.87L159.06-12.87L159.06-12.87Q161.64-15.90 166.11-15.90L166.11-15.90L166.11-15.90Q169.35-15.90 171-14.40L171-14.40L171-14.40Q172.65-12.90 172.65-9.75L172.65-9.75L172.65-9.75Q172.65-4.95 170.07-2.16L170.07-2.16L170.07-2.16Q167.55 0.60 163.23 0.60ZM164.01-12.45L164.01-12.45L164.01-12.45Q163.65-11.64 163.37-10.42L163.37-10.42L163.37-10.42Q163.08-9.21 162.72-7.29L162.72-7.29L162.72-7.29Q162.36-5.37 162.36-3L162.36-3L162.36-3Q162.36-2.22 162.62-1.71L162.62-1.71L162.62-1.71Q162.87-1.20 163.56-1.20L163.56-1.20L163.56-1.20Q164.25-1.20 164.69-1.53L164.69-1.53L164.69-1.53Q165.12-1.86 165.45-2.64L165.45-2.64L165.45-2.64Q166.05-4.02 166.53-6.58L166.53-6.58L166.53-6.58Q167.01-9.15 167.06-10.26L167.06-10.26L167.06-10.26Q167.10-11.37 167.10-12.20L167.10-12.20L167.10-12.20Q167.10-13.02 166.86-13.56L166.86-13.56L166.86-13.56Q166.62-14.10 165.94-14.10L165.94-14.10L165.94-14.10Q165.27-14.10 164.82-13.68L164.82-13.68L164.82-13.68Q164.37-13.26 164.01-12.45Z" fill="url(#editing-shiny-gradient2)"></path></g></g><style>text {
  font-size: 64px;
  font-family: Arial Black;
  dominant-baseline: central;
  text-anchor: middle;
}</style></svg>